<svg width="1070" height="52" viewBox="0 0 1070 52" fill="none" xmlns="http://www.w3.org/2000/svg">
<g opacity="0.01">
<rect x="1006.2" width="62.8878" height="41.0197" fill="white"/>
</g>
<rect x="1029.35" y="7.14661" width="16.5895" height="26.7218" fill="#A6AEBE"/>
<path fill-rule="evenodd" clip-rule="evenodd" d="M1031.06 20.5098C1031.06 15.2962 1033.48 10.3703 1037.64 7.1513C1030.58 1.67574 1020.43 2.4733 1014.34 8.98348C1008.24 15.4937 1008.24 25.5307 1014.34 32.0409C1020.43 38.5511 1030.58 39.3486 1037.64 33.8731C1033.48 30.6531 1031.05 25.7251 1031.06 20.5098Z" fill="#A1A7B3"/>
<path fill-rule="evenodd" clip-rule="evenodd" d="M1063.91 30.6097V31.7201H1063.79V30.6097H1063.55V30.3799H1064.17V30.6097H1063.91ZM1065.12 30.38V31.7201H1064.99V30.7054L1064.79 31.5765H1064.65L1064.44 30.7054V31.7201H1064.3V30.38H1064.49L1064.71 31.3372L1064.94 30.38H1065.12Z" fill="#B9C2D3"/>
<path fill-rule="evenodd" clip-rule="evenodd" d="M1065.52 20.5098C1065.52 27.016 1061.75 32.951 1055.82 35.7942C1049.89 38.6373 1042.83 37.8895 1037.64 33.8683C1041.8 30.6466 1044.23 25.7213 1044.23 20.5074C1044.23 15.2935 1041.8 10.3682 1037.64 7.14654C1042.83 3.12535 1049.89 2.37753 1055.82 5.2207C1061.75 8.06387 1065.52 13.9989 1065.52 20.5051V20.5098Z" fill="#B9C2D3"/>
<path d="M1014.29 41.0851V47.7H1012.96V43.3975L1011.19 47.7H1010.19L1008.41 43.3975V47.7H1007.08V41.0851H1008.59L1010.69 46.0036L1012.79 41.0851H1014.29ZM1015.45 45.0559C1015.45 44.5252 1015.56 44.0545 1015.76 43.6439C1015.98 43.2332 1016.27 42.9173 1016.63 42.6962C1016.99 42.475 1017.4 42.3645 1017.85 42.3645C1018.24 42.3645 1018.58 42.4435 1018.87 42.6014C1019.17 42.7594 1019.41 42.9584 1019.58 43.1985V42.4498H1020.92V47.7H1019.58V46.9324C1019.41 47.1788 1019.18 47.3841 1018.87 47.5484C1018.58 47.7063 1018.23 47.7853 1017.84 47.7853C1017.4 47.7853 1016.99 47.6716 1016.63 47.4441C1016.27 47.2167 1015.98 46.8976 1015.76 46.487C1015.56 46.07 1015.45 45.593 1015.45 45.0559ZM1019.58 45.0749C1019.58 44.7527 1019.52 44.4778 1019.39 44.2504C1019.27 44.0166 1019.1 43.8397 1018.88 43.7197C1018.67 43.5933 1018.44 43.5301 1018.19 43.5301C1017.94 43.5301 1017.72 43.5902 1017.51 43.7102C1017.3 43.8303 1017.13 44.0072 1017 44.2409C1016.87 44.4684 1016.81 44.74 1016.81 45.0559C1016.81 45.3718 1016.87 45.6498 1017 45.8899C1017.13 46.1237 1017.3 46.3037 1017.51 46.4301C1017.72 46.5565 1017.95 46.6196 1018.19 46.6196C1018.44 46.6196 1018.67 46.5596 1018.88 46.4396C1019.1 46.3132 1019.27 46.1363 1019.39 45.9089C1019.52 45.6751 1019.58 45.3971 1019.58 45.0749ZM1024.41 47.7853C1023.98 47.7853 1023.6 47.7095 1023.26 47.5579C1022.92 47.3999 1022.64 47.1883 1022.44 46.9229C1022.25 46.6575 1022.14 46.3638 1022.12 46.0415H1023.46C1023.48 46.2437 1023.58 46.4111 1023.75 46.5438C1023.93 46.6765 1024.15 46.7428 1024.4 46.7428C1024.66 46.7428 1024.85 46.6923 1024.99 46.5912C1025.14 46.4901 1025.21 46.3606 1025.21 46.2027C1025.21 46.0321 1025.12 45.9057 1024.94 45.8236C1024.77 45.7351 1024.5 45.6404 1024.12 45.5393C1023.73 45.4445 1023.41 45.3466 1023.15 45.2455C1022.91 45.1444 1022.69 44.9896 1022.51 44.7811C1022.33 44.5726 1022.24 44.2915 1022.24 43.9377C1022.24 43.647 1022.33 43.3817 1022.49 43.1416C1022.66 42.9015 1022.9 42.712 1023.21 42.573C1023.53 42.434 1023.9 42.3645 1024.32 42.3645C1024.94 42.3645 1025.44 42.5224 1025.82 42.8383C1026.19 43.1479 1026.39 43.5681 1026.43 44.0988H1025.16C1025.14 43.8903 1025.06 43.726 1024.9 43.606C1024.75 43.4796 1024.54 43.4164 1024.28 43.4164C1024.04 43.4164 1023.85 43.4606 1023.72 43.5491C1023.6 43.6376 1023.53 43.7608 1023.53 43.9187C1023.53 44.0956 1023.62 44.2314 1023.8 44.3262C1023.97 44.4147 1024.25 44.5063 1024.62 44.601C1025 44.6958 1025.31 44.7937 1025.56 44.8948C1025.81 44.9959 1026.02 45.1539 1026.2 45.3687C1026.38 45.5772 1026.47 45.8552 1026.48 46.2027C1026.48 46.5059 1026.39 46.7776 1026.22 47.0177C1026.06 47.2578 1025.82 47.4473 1025.5 47.5863C1025.19 47.719 1024.83 47.7853 1024.41 47.7853ZM1029.3 43.5396V46.0795C1029.3 46.2564 1029.34 46.3859 1029.43 46.468C1029.51 46.5438 1029.66 46.5817 1029.86 46.5817H1030.48V47.7H1029.64C1028.53 47.7 1027.97 47.1567 1027.97 46.07V43.5396H1027.34V42.4498H1027.97V41.1514H1029.3V42.4498H1030.48V43.5396H1029.3ZM1036.5 44.9612C1036.5 45.1507 1036.49 45.3213 1036.46 45.4729H1032.63C1032.66 45.852 1032.79 46.1489 1033.02 46.3638C1033.26 46.5786 1033.55 46.686 1033.89 46.686C1034.38 46.686 1034.73 46.4743 1034.94 46.051H1036.37C1036.22 46.5565 1035.93 46.9734 1035.5 47.302C1035.07 47.6242 1034.54 47.7853 1033.92 47.7853C1033.41 47.7853 1032.96 47.6747 1032.55 47.4536C1032.15 47.2262 1031.84 46.9071 1031.61 46.4964C1031.39 46.0858 1031.28 45.6119 1031.28 45.0749C1031.28 44.5315 1031.39 44.0545 1031.61 43.6439C1031.83 43.2332 1032.14 42.9173 1032.54 42.6962C1032.94 42.475 1033.4 42.3645 1033.92 42.3645C1034.41 42.3645 1034.86 42.4719 1035.25 42.6867C1035.65 42.9015 1035.96 43.2079 1036.17 43.606C1036.39 43.9977 1036.5 44.4494 1036.5 44.9612ZM1035.13 44.5821C1035.12 44.2409 1035 43.9692 1034.76 43.7671C1034.52 43.5586 1034.23 43.4543 1033.88 43.4543C1033.55 43.4543 1033.27 43.5554 1033.04 43.7576C1032.82 43.9535 1032.69 44.2283 1032.64 44.5821H1035.13ZM1038.99 43.2648C1039.16 42.9868 1039.38 42.7688 1039.65 42.6109C1039.93 42.4529 1040.24 42.374 1040.6 42.374V43.7671H1040.25C1039.83 43.7671 1039.52 43.865 1039.3 44.0609C1039.09 44.2567 1038.99 44.5979 1038.99 45.0844V47.7H1037.66V42.4498H1038.99V43.2648ZM1041.34 45.0749C1041.34 44.5315 1041.45 44.0577 1041.67 43.6533C1041.89 43.2427 1042.2 42.9268 1042.59 42.7057C1042.98 42.4782 1043.43 42.3645 1043.94 42.3645C1044.59 42.3645 1045.13 42.5287 1045.55 42.8573C1045.98 43.1795 1046.27 43.6344 1046.41 44.222H1044.98C1044.9 43.9945 1044.77 43.8176 1044.59 43.6913C1044.41 43.5586 1044.19 43.4922 1043.93 43.4922C1043.55 43.4922 1043.25 43.6312 1043.03 43.9092C1042.81 44.1809 1042.7 44.5695 1042.7 45.0749C1042.7 45.574 1042.81 45.9626 1043.03 46.2406C1043.25 46.5122 1043.55 46.6481 1043.93 46.6481C1044.46 46.6481 1044.82 46.408 1044.98 45.9278H1046.41C1046.27 46.4964 1045.98 46.9482 1045.55 47.283C1045.12 47.6179 1044.58 47.7853 1043.94 47.7853C1043.43 47.7853 1042.98 47.6747 1042.59 47.4536C1042.2 47.2262 1041.89 46.9103 1041.67 46.5059C1041.45 46.0952 1041.34 45.6182 1041.34 45.0749ZM1047.23 45.0559C1047.23 44.5252 1047.34 44.0545 1047.54 43.6439C1047.76 43.2332 1048.05 42.9173 1048.41 42.6962C1048.77 42.475 1049.18 42.3645 1049.63 42.3645C1050.02 42.3645 1050.36 42.4435 1050.65 42.6014C1050.95 42.7594 1051.19 42.9584 1051.36 43.1985V42.4498H1052.7V47.7H1051.36V46.9324C1051.19 47.1788 1050.96 47.3841 1050.65 47.5484C1050.36 47.7063 1050.01 47.7853 1049.62 47.7853C1049.18 47.7853 1048.77 47.6716 1048.41 47.4441C1048.05 47.2167 1047.76 46.8976 1047.54 46.487C1047.34 46.07 1047.23 45.593 1047.23 45.0559ZM1051.36 45.0749C1051.36 44.7527 1051.3 44.4778 1051.17 44.2504C1051.05 44.0166 1050.88 43.8397 1050.66 43.7197C1050.45 43.5933 1050.22 43.5301 1049.97 43.5301C1049.72 43.5301 1049.5 43.5902 1049.29 43.7102C1049.08 43.8303 1048.91 44.0072 1048.78 44.2409C1048.65 44.4684 1048.59 44.74 1048.59 45.0559C1048.59 45.3718 1048.65 45.6498 1048.78 45.8899C1048.91 46.1237 1049.08 46.3037 1049.29 46.4301C1049.5 46.5565 1049.73 46.6196 1049.97 46.6196C1050.22 46.6196 1050.45 46.5596 1050.66 46.4396C1050.88 46.3132 1051.05 46.1363 1051.17 45.9089C1051.3 45.6751 1051.36 45.3971 1051.36 45.0749ZM1055.51 43.2648C1055.68 42.9868 1055.9 42.7688 1056.17 42.6109C1056.45 42.4529 1056.77 42.374 1057.12 42.374V43.7671H1056.77C1056.35 43.7671 1056.04 43.865 1055.82 44.0609C1055.62 44.2567 1055.51 44.5979 1055.51 45.0844V47.7H1054.18V42.4498H1055.51V43.2648ZM1057.86 45.0559C1057.86 44.5252 1057.97 44.0545 1058.18 43.6439C1058.39 43.2332 1058.68 42.9173 1059.05 42.6962C1059.42 42.475 1059.82 42.3645 1060.27 42.3645C1060.61 42.3645 1060.94 42.4403 1061.25 42.5919C1061.56 42.7372 1061.8 42.9331 1061.99 43.1795V40.6871H1063.33V47.7H1061.99V46.9229C1061.82 47.1819 1061.59 47.3904 1061.3 47.5484C1061 47.7063 1060.65 47.7853 1060.26 47.7853C1059.82 47.7853 1059.42 47.6716 1059.05 47.4441C1058.68 47.2167 1058.39 46.8976 1058.18 46.487C1057.97 46.07 1057.86 45.593 1057.86 45.0559ZM1062 45.0749C1062 44.7527 1061.93 44.4778 1061.81 44.2504C1061.68 44.0166 1061.51 43.8397 1061.3 43.7197C1061.08 43.5933 1060.85 43.5301 1060.6 43.5301C1060.36 43.5301 1060.13 43.5902 1059.92 43.7102C1059.71 43.8303 1059.54 44.0072 1059.41 44.2409C1059.28 44.4684 1059.22 44.74 1059.22 45.0559C1059.22 45.3718 1059.28 45.6498 1059.41 45.8899C1059.54 46.1237 1059.71 46.3037 1059.92 46.4301C1060.14 46.5565 1060.36 46.6196 1060.6 46.6196C1060.85 46.6196 1061.08 46.5596 1061.3 46.4396C1061.51 46.3132 1061.68 46.1363 1061.81 45.9089C1061.93 45.6751 1062 45.3971 1062 45.0749Z" fill="#A6AEBE"/>
<path d="M477.063 24.8927C486.286 21.112 487.65 8.77429 474.531 8.77429H459.34L453.726 18.724H456.368L449.652 42.5038H467.265C480.115 42.6032 485.895 28.9271 477.063 24.8927ZM467.265 33.8476H462.862L464.514 28.4749H468.697C473.651 29.3702 470.569 34.0465 467.265 33.8476ZM469.908 22.4052H466.165L467.265 17.7289H471.449C475.49 18.6245 471.999 22.6043 469.908 22.4052Z" fill="#A6AEBE" stroke="#A6AEBE" stroke-width="0.286673"/>
<path d="M513.124 21.4818L518.891 12.2798L511.087 8.60059L510.07 9.73612C505.86 7.72186 483.815 10.5029 482.435 30.1579C483.26 46.6461 503.701 43.6801 505.705 42.634L511.328 32.1296C505.821 35.4077 494.548 36.9814 494.071 27.1344C495.06 19.0142 505.667 15.9817 513.124 21.4818ZM541.902 8.7746H524.173L518.538 18.4266H521.433L508.071 42.5041H521.004L523.659 36.6967H531.599L531.796 42.5041H543.701L541.902 8.7746ZM527.256 28.8776L531.597 19.5104L531.796 28.8776H527.256Z" fill="#A6AEBE" stroke="#A6AEBE" stroke-width="0.286673"/>
<path d="M431.183 40.8936L431.872 40.713L431.117 39.7696L431.183 40.8936ZM419.877 40.7331L419.744 41.5763C420.086 41.5462 420.508 41.8132 420.677 41.2149C420.664 40.7487 420.27 40.7231 419.877 40.7331ZM425.363 40.713C425.306 40.4834 425.094 40.3143 424.563 40.4722L424.742 41.3353C425.177 41.248 425.402 41.015 425.363 40.713ZM412.968 40.0066L412.756 40.7735C413.096 40.7864 413.496 41.0363 413.722 40.5818C413.738 40.2971 413.751 40.0135 412.968 40.0066ZM424.897 41.978L425.053 42.8617C425.416 42.87 425.748 42.6721 425.652 42.2594C425.559 41.8622 425.19 41.925 424.897 41.978Z" fill="#A6AEBE"/>
<path d="M439.345 9.2291C427.582 3.81275 413.534 3.96337 402.327 8.99286C396.547 18.1889 396.362 31.0555 402.327 42.4515C414.674 48.0991 428.33 47.7271 439.432 42.6876C444.65 33.0123 445.511 21.3699 439.345 9.2291ZM419.479 36.6884L418.782 36.6955C418.609 34.9541 418.148 33.4905 417.16 32.3705C412.63 27.2354 403.369 31.1014 405.749 22.3745C406.986 17.913 421.099 15.2817 419.479 36.6884ZM405.765 28.069C406.754 29.8889 412.952 30.187 415.103 31.5801C418.517 33.7897 418.026 36.6964 418.026 36.6964H417.222C415.637 32.3066 411.19 35.7822 407.628 34.6C405.391 33.8811 403.768 30.7648 405.765 28.069ZM417.057 42.3798L417.39 39.9905L417.99 40.0307L417.724 42.6608C417.455 43.8193 415.542 43.6645 415.302 42.5604L415.613 39.8298L416.324 39.9306L416.013 42.2192C416.052 42.9766 416.892 42.9313 417.057 42.3798ZM413.865 43.0322L413.182 42.883C413.262 42.3724 413.932 41.3334 412.608 41.3334L412.239 42.6913L411.485 42.5635L412.286 39.3035C414.244 39.4962 414.416 39.989 414.455 40.5179C414.377 40.9282 414.257 41.2146 413.866 41.2849C414.323 41.6603 413.871 42.4472 413.865 43.0322ZM409.524 39.3807C409.335 39.6067 408.958 40.3961 408.902 41.0252C408.845 41.6919 409.554 41.5515 409.73 41.4736C409.873 41.4113 409.979 40.8757 409.979 40.8757L409.482 40.7262L409.647 40.2781L410.765 40.6143L410.226 42.2965L409.771 42.184L409.813 41.9224C409.256 42.1518 408.237 41.9797 408.118 41.3992C407.998 40.9327 408.36 39.5185 408.944 38.8578C409.512 38.2153 410.896 38.8433 410.929 39.2315C410.964 39.6184 410.795 40.0537 410.795 40.0537L410.274 39.965C410.274 39.965 410.305 39.8252 410.351 39.605C410.398 39.3717 409.725 39.138 409.524 39.3807ZM419.678 42.1184L419.545 43.5643L418.991 43.5444L419.19 40.1108C420.577 40.1368 421.371 40.3103 421.345 41.1952C421.262 42.4044 420.179 42.1324 419.678 42.1184ZM421.06 36.6962H420.131C420.05 33.7227 420.681 28.2841 418.953 24.2816C417.644 21.2475 414.33 19.8827 413.594 17.4317C412.432 13.5522 414.412 9.3546 421.06 9.03142C426.825 9.56639 428.597 13.5887 427.613 17.3339C425.923 21.0784 424.231 20.5403 422.127 24.2702C420.408 28.2687 421.062 33.507 421.06 36.6962ZM431.364 42.1989L430.719 42.3997L430.519 38.9463L431.273 38.7657L433.14 41.6166L432.629 41.9179L432.006 41.1151L431.296 41.3559L431.364 42.1989ZM423.847 36.6962H423.105C423.717 29.0599 434.334 30.7189 435.304 28.069C436.982 30.696 436.378 32.911 434.626 34.0465C430.271 36.8693 426.097 31.9576 423.847 36.6962ZM427.787 40.5527L428.12 42.139C428.328 42.5045 428.468 42.4368 428.787 42.4001C429.155 42.1587 429.078 41.9236 429.009 41.6168L429.653 41.5368C429.821 42.6859 429.216 42.8032 428.764 42.8819C427.795 42.9446 427.605 42.7741 427.343 41.6372C427.19 40.664 426.926 39.6364 427.831 39.4486C429.317 39.2436 429.229 39.848 429.364 40.2717L428.72 40.3724C428.617 40.0084 428.469 39.8641 428.142 39.8908C427.844 40.0144 427.722 40.2144 427.787 40.5527ZM426.431 42.1989C426.462 42.6991 426.275 43.0311 425.92 43.1427L424.41 43.4237L423.81 40.1108C424.121 40.0651 425.639 39.562 426.009 40.4725C426.192 41.0286 426.003 41.2281 425.787 41.4762C426.196 41.595 426.334 41.8825 426.431 42.1989ZM422.552 25.5738C425.917 17.0091 433.618 18.5227 435.327 22.3747C437.666 30.1043 430.133 27.9845 425.306 31.1542C423.481 32.5881 422.522 34.2331 422.508 36.7269H421.68C421.632 31.7039 421.541 28.1471 422.552 25.5738Z" fill="#A6AEBE"/>
<path fill-rule="evenodd" clip-rule="evenodd" d="M47.0654 15.1165H56.4394C60.2352 15.1165 63.0651 16.7224 63.0651 20.1034C63.0651 22.5822 61.7533 23.9627 59.4747 24.6941V24.7499C62.1908 25.2866 63.5922 26.6954 63.5922 29.0885C63.5922 33.7942 59.2985 34.7794 55.6493 34.7794H47.0654V15.1165ZM52.4951 22.8918H54.0149C55.7959 22.8918 57.6366 22.4691 57.6366 20.8056C57.6366 19.005 55.8839 18.8343 54.0716 18.8343H52.4951V22.8918ZM52.4951 31.0615H54.1037C56.0876 31.0615 58.16 30.7794 58.16 28.779C58.16 26.6397 56.0297 26.4408 54.1607 26.4408H52.4951V31.0615Z" fill="#A6AEBE"/>
<path fill-rule="evenodd" clip-rule="evenodd" d="M70.7202 15.1165H77.378L85.2331 34.7794H79.2757L77.7585 30.5831H70.108L68.5012 34.7794H62.9827L70.7202 15.1165ZM74.0505 19.1739H73.9893L71.3628 26.8652H76.4725L74.0505 19.1739Z" fill="#A6AEBE"/>
<path fill-rule="evenodd" clip-rule="evenodd" d="M85.9895 15.1165H92.9097L99.8013 28.4703H99.8581L99.7718 15.1165H104.737V34.7794H97.9916L90.8646 21.3424H90.8087L90.9829 34.7794H85.9895V15.1165Z" fill="#A6AEBE"/>
<path fill-rule="evenodd" clip-rule="evenodd" d="M106.581 15.1165H112.011V23.1473H112.07L118.2 15.1165H124.743L117.208 24.2714L125.327 34.7794H118.404L112.07 25.85H112.011V34.7794H106.581V15.1165Z" fill="#A6AEBE"/>
<path fill-rule="evenodd" clip-rule="evenodd" d="M132.06 15.1165H141.434C145.229 15.1165 148.062 16.7224 148.062 20.1034C148.062 22.5822 146.75 23.9627 144.472 24.6941V24.7499C147.187 25.2866 148.589 26.6954 148.589 29.0885C148.589 33.7942 144.296 34.7794 140.647 34.7794H132.06V15.1165ZM137.492 22.8918H139.009C140.791 22.8918 142.629 22.4691 142.629 20.8056C142.629 19.005 140.879 18.8343 139.07 18.8343H137.492V22.8918ZM137.492 31.0615H139.099C141.083 31.0615 143.157 30.7794 143.157 28.779C143.157 26.6397 141.026 26.4408 139.157 26.4408H137.492V31.0615Z" fill="#A6AEBE"/>
<path fill-rule="evenodd" clip-rule="evenodd" d="M149.792 15.1165H159.487C163.107 15.1165 166.057 16.6933 166.057 20.0759C166.057 22.6954 164.772 24.442 162.145 25.0328V25.0886C163.893 25.5404 164.012 27.0324 165.034 29.4272L167.021 34.7794H161.357L160.188 31.2322C159.078 27.8513 158.377 27.0041 156.362 27.0041H155.222V34.7794H149.792V15.1165ZM155.222 23.2862H156.654C158.406 23.2862 160.626 23.2288 160.626 21.0037C160.626 19.1739 158.726 18.8343 156.654 18.8343H155.222V23.2862Z" fill="#A6AEBE"/>
<mask id="mask0_522_314" style="mask-type:alpha" maskUnits="userSpaceOnUse" x="0" y="5" width="174" height="40">
<path fill-rule="evenodd" clip-rule="evenodd" d="M0 44.7095H173.948V5.20007H0V44.7095Z" fill="white"/>
</mask>
<g mask="url(#mask0_522_314)">
<path fill-rule="evenodd" clip-rule="evenodd" d="M168.517 34.7797H173.948V15.1166H168.517V34.7797Z" fill="#A6AEBE"/>
<path fill-rule="evenodd" clip-rule="evenodd" d="M34.672 5.20001H6.24721C2.79698 5.20001 0 7.96529 0 11.3771V11.4422V38.534C0 41.9125 2.74543 44.6588 6.1512 44.7093H34.6569C38.108 44.7093 40.9059 41.9442 40.9059 38.534L40.9194 11.3771C40.9194 7.96529 38.1232 5.20001 34.672 5.20001ZM9.62633 41.5436L8.07541 41.56C6.19832 41.56 4.67674 40.0724 4.67674 38.2366L4.66784 37.9749V12.8947L4.67761 11.5443C4.74783 9.76764 6.14677 8.33742 7.97943 8.33742H11.1319C13.9884 8.33742 16.3055 10.734 16.3055 13.5618C16.3055 14.9595 15.7375 16.2285 14.8177 17.1511L6.77425 25.025L14.3128 32.4307C15.2852 33.3971 15.8726 34.6679 15.8726 36.0596C15.8726 39.0888 13.0757 41.5436 9.62633 41.5436ZM32.8019 41.5189L18.7469 41.513C18.7469 41.513 20.3725 38.1243 20.3725 36.0268C20.3725 33.4699 19.4855 31.1849 18.0982 29.6733L13.2908 24.9453L18.1977 20.0544C19.6579 18.7297 20.6285 16.3785 20.6285 13.7007C20.6285 11.5803 20.0206 9.7016 19.042 8.33742H22.4478C25.3052 8.33742 27.6223 10.734 27.6223 13.5618C27.6223 14.9595 27.0552 16.2285 26.1353 17.1511L18.2457 24.9427L34.6321 41.0635C34.1129 41.3792 33.458 41.5189 32.8019 41.5189ZM36.2345 36.4857L24.4911 24.9393L30.0841 19.4551C31.2234 18.0823 31.9453 16.0133 31.9453 13.7007C31.9453 11.5666 31.3285 9.64244 30.3409 8.2774L32.8446 8.3494C34.7218 8.3494 36.2435 9.83964 36.2435 11.6746L36.2345 36.4857Z" fill="#A6AEBE"/>
</g>
<path fill-rule="evenodd" clip-rule="evenodd" d="M233.206 36.2792L238.624 42.9843H225.21L233.206 36.2792ZM231.503 34.2079L221.01 43.0047L221.005 21.3699L231.503 34.2079ZM256.749 12.4231C256.749 12.4231 254.446 11.3333 251.77 11.4925C248.71 11.6725 246.151 12.8451 244.679 14.3923C243.754 15.3643 242.73 16.5501 242.216 17.8379C241.47 19.7008 241.311 22.1624 241.311 22.1624C241.311 22.1624 240.241 21.2548 238.901 18.6102C237.342 15.5341 236.915 13.6708 236.704 11.545C236.516 9.67944 236.811 7.83484 236.811 7.83484H256.749V12.4231ZM256.749 18.5564V32.1978C256.749 32.1978 255.51 32.6736 254.499 32.6736C253.488 32.6736 251.766 32.5238 249.766 31.4251C247.781 30.3353 246.682 29.0168 245.831 27.822C244.967 26.6068 244.253 24.9222 244.041 23.7083C243.871 22.7371 243.687 20.3148 244.68 18.346C245.218 17.2775 246.664 15.4462 249.447 15.3421C251.716 15.255 252.974 15.8511 254.127 16.4835C256.321 17.6893 256.749 18.5564 256.749 18.5564V18.5564ZM235.039 31.2399L238.636 28.2441C237.49 26.781 237.187 26.2297 235.905 24.3407C234.594 22.4073 233.495 20.2803 232.555 17.7845C231.538 15.081 231.292 13.5632 231.405 11.545C231.545 8.97711 232.13 7.83484 232.13 7.83484H221L221.005 13.8295C221.005 13.8295 229.525 24.4994 235.039 31.2399V31.2399ZM245.315 42.9746H256.749V34.6425C256.749 34.6425 253.913 35.9427 252.07 36.0476C250.972 36.1116 249.907 36.1539 248.188 35.6969C246.278 35.1895 245.192 34.695 243.421 33.2353C241.999 32.0644 240.373 30.3355 240.373 30.3355L236.755 33.3496C238.434 35.4012 239.673 36.8946 240.053 37.2966C241.684 39.0196 242.375 39.6528 243.474 40.2668C244.573 40.8821 248.242 40.8488 248.242 40.8488L245.315 42.9746Z" fill="#A6AEBE"/>
<path fill-rule="evenodd" clip-rule="evenodd" d="M343.227 35.563C343.227 37.9772 343.553 41.9455 340.847 42.9115V43.0724H351.122V42.9115C348.418 41.8926 348.743 37.9772 348.743 35.563V15.3432C348.743 12.9302 348.418 8.96109 351.122 7.94214V7.78127H340.847V7.94214C343.605 8.96109 343.227 12.8764 343.227 15.3432V35.563ZM305.551 15.3432L324.1 38.6744C326.479 41.7309 328.157 43.5016 331.996 44.7881V14.6997C331.996 11.6966 331.996 9.55078 334.809 7.94214V7.78127H325.29V7.94214C328.157 9.55078 328.102 11.6966 328.102 14.6997V35.027L308.31 10.248L307.551 9.17529C307.174 8.74646 306.958 8.47849 306.741 7.83504V7.78127H298.844V7.94214C301.657 9.55078 301.657 11.6966 301.657 14.6997V36.1006C301.657 39.1033 301.657 41.2483 298.791 42.9115V43.0724H308.364V42.9115C305.497 41.2483 305.551 39.1033 305.551 36.1006V15.3432ZM275.314 21.9945V11.4824L278.937 11.1061C282.182 10.7843 285.643 12.7156 285.643 16.4167C285.643 20.8147 280.613 21.9945 277.099 21.9945H275.314ZM275.314 38.7815V25.5334L279.099 25.3192C283.858 25.0508 288.942 27.3042 288.942 32.5065C288.942 37.6017 284.454 39.6396 280.019 39.2107L275.314 38.7815ZM269.798 35.5096C269.798 37.9772 270.122 41.8926 267.418 42.9115V43.0724H276.341C280.397 43.0724 284.67 43.2337 288.455 41.41C292.079 39.6934 294.945 36.1531 294.945 32.0231C294.945 26.7679 290.997 23.5493 286.129 22.5295C289.212 21.1893 291.537 19.1514 291.537 15.5578C291.537 10.7843 287.374 7.78125 280.236 7.78125H267.418V7.94211C270.177 8.96106 269.798 12.8764 269.798 15.2894V35.5096Z" fill="#A6AEBE"/>
<path fill-rule="evenodd" clip-rule="evenodd" d="M590.648 33.3825C590.648 31.2527 590.611 29.4654 590.501 27.8717H594.322L594.501 30.6097H594.608C595.474 29.1628 597.058 27.4518 600.011 27.4518C602.317 27.4518 604.118 28.8235 604.873 30.8754H604.947C605.56 29.8492 606.278 29.0896 607.106 28.5554C608.08 27.8341 609.197 27.4518 610.637 27.4518C613.554 27.4518 616.506 29.5421 616.506 35.4728V46.3808H612.184V36.158C612.184 33.0796 611.177 31.2527 609.053 31.2527C607.538 31.2527 606.42 32.3951 605.955 33.7261C605.846 34.1809 605.738 34.7515 605.738 35.2798V46.3808H601.415V35.6622C601.415 33.0796 600.444 31.2527 598.391 31.2527C596.734 31.2527 595.619 32.6232 595.221 33.9128C595.04 34.3718 594.967 34.9025 594.967 35.4336V46.3808H590.648V33.3825Z" fill="#A6AEBE"/>
<path fill-rule="evenodd" clip-rule="evenodd" d="M633.343 41.9349C633.343 43.6064 633.415 45.238 633.595 46.3816H629.596L629.309 44.3296H629.2C628.12 45.7753 626.283 46.7999 624.014 46.7999C620.484 46.7999 618.504 44.1034 618.504 41.2891C618.504 36.6124 622.428 34.2579 628.912 34.2955V33.9902C628.912 32.7735 628.443 30.7603 625.346 30.7603C623.616 30.7603 621.815 31.3309 620.627 32.1277L619.761 29.0896C621.06 28.2517 623.331 27.4525 626.102 27.4525C631.723 27.4525 633.343 31.2178 633.343 35.2449V41.9349ZM629.019 37.3364C625.886 37.2597 622.898 37.9818 622.898 40.7949C622.898 42.6175 624.014 43.4554 625.419 43.4554C627.182 43.4554 628.481 42.2387 628.876 40.9088C628.983 40.5667 629.019 40.1852 629.019 39.8823V37.3364Z" fill="#A6AEBE"/>
<path fill-rule="evenodd" clip-rule="evenodd" d="M636.406 33.3825C636.406 31.2527 636.366 29.4654 636.261 27.8717H640.148L640.365 30.6461H640.472C641.229 29.2035 643.138 27.4518 646.055 27.4518C649.117 27.4518 652.286 29.5421 652.286 35.3968V46.3808H647.857V35.9302C647.857 33.2678 646.921 31.2527 644.507 31.2527C642.742 31.2527 641.518 32.5833 641.048 33.9903C640.907 34.4094 640.869 34.9808 640.869 35.5092V46.3808H636.406V33.3825Z" fill="#A6AEBE"/>
<path fill-rule="evenodd" clip-rule="evenodd" d="M671.493 20.4345V41.1726C671.493 43.0727 671.564 45.1288 671.636 46.3816H667.674L667.497 43.4554H667.424C666.378 45.5089 664.25 46.8 661.696 46.8C657.52 46.8 654.205 43.0378 654.205 37.3364C654.168 31.1404 657.842 27.4526 662.055 27.4526C664.468 27.4526 666.198 28.5182 666.989 29.8876H667.062V20.4345H671.493ZM667.062 35.5852C667.062 35.2091 667.025 34.7508 666.956 34.3719C666.559 32.5474 665.154 31.0642 663.136 31.0642C660.291 31.0642 658.706 33.7262 658.706 37.1851C658.706 40.5668 660.291 43.0379 663.101 43.0379C664.901 43.0379 666.486 41.746 666.918 39.732C667.025 39.3121 667.062 38.8566 667.062 38.3607V35.5852Z" fill="#A6AEBE"/>
<path fill-rule="evenodd" clip-rule="evenodd" d="M674.623 46.3806H679.094V27.8726H674.623V46.3806Z" fill="#A6AEBE"/>
<path fill-rule="evenodd" clip-rule="evenodd" d="M682.225 33.8383C682.225 31.3308 682.187 29.5419 682.08 27.8712H685.934L686.075 31.4048H686.225C687.088 28.7823 689.141 27.8712 691.013 27.8712C691.444 27.8712 691.696 27.7933 692.057 27.8712V31.9773C691.696 31.9014 691.301 31.8255 690.76 31.8255C688.636 31.8255 687.194 33.2684 686.798 35.3575C686.728 35.7759 686.656 36.2721 686.656 36.8067V46.3814H682.225V33.8383Z" fill="#A6AEBE"/>
<path fill-rule="evenodd" clip-rule="evenodd" d="M694.11 46.3806H698.574V27.8726H694.11V46.3806Z" fill="#A6AEBE"/>
<path fill-rule="evenodd" clip-rule="evenodd" d="M693.054 5.49446C690.373 7.13305 684.048 10.9611 681.687 12.3866V12.3866C680.248 13.1602 676.916 13.498 675.031 10.8158V10.8158C674.997 10.7674 672.524 7.50609 672.423 7.38329V7.38329C672.352 7.29652 670.753 4.7937 667.19 4.71545V4.71545C666.664 4.70228 664.047 4.68756 661.493 6.21923V6.21923C658.098 8.26573 650.204 13.0285 650.204 13.0285V13.0285C650.202 13.0285 650.202 13.0328 650.198 13.0328V13.0328C646.953 14.9921 644.425 16.5176 644.425 16.5176V16.5176L647.412 20.3894C648.809 22.2205 651.961 23.6371 654.694 21.9815V21.9815C654.694 21.9815 664.791 15.8106 664.828 15.7928V15.7928C669.195 13.2652 672.565 13.2652 674.802 14.2057V14.2057C676.809 15.101 678.556 17.3315 678.556 17.3315V17.3315C678.556 17.3315 680.838 20.3166 681.241 20.8387V20.8387C682.54 22.5258 684.689 21.863 684.689 21.863V21.863C684.689 21.863 685.486 21.7677 686.686 21.0154V21.0154C686.686 21.0154 696.467 15.0305 696.474 15.0285V15.0285C699.58 13.1056 702.428 12.7465 703.884 12.8879V12.8879C708.444 13.3252 709.86 16.6869 711.837 19.032V19.032C713.002 20.4115 714.052 21.1947 715.659 21.1552V21.1552C716.714 21.1316 717.907 20.456 718.083 20.334V20.334L729.795 13.2009C729.795 13.2009 728.594 11.2907 726.132 8.3188V8.3188C723.93 5.66723 721.59 6.86692 719.724 7.84195V7.84195C718.941 8.25101 716.101 10.2444 713.288 11.6351V11.6351C711.283 12.6256 708.404 12.3277 706.826 10.27V10.27C706.732 10.1449 704.179 6.88319 703.91 6.48187V6.48187C702.88 5.11987 700.869 3.90002 698.293 3.90002V3.90002C696.726 3.90002 694.949 4.35093 693.054 5.49446" fill="#A6AEBE"/>
<path fill-rule="evenodd" clip-rule="evenodd" d="M783.947 6.48755H795.242C798.423 6.48755 802.196 6.58613 804.72 8.70854C806.406 10.1264 807.291 12.3855 807.086 14.8106C806.394 23.0342 801.235 27.6403 794.317 27.6403H788.747C787.799 27.6403 787.17 28.2393 786.903 29.8618L785.348 39.2906C785.247 39.9024 784.969 40.2628 784.462 40.3064H777.504C776.732 40.3064 776.458 39.7433 776.659 38.5236L781.67 8.27673C781.87 7.0646 782.566 6.48755 783.947 6.48755" fill="#A6AEBE"/>
<path fill-rule="evenodd" clip-rule="evenodd" d="M791.211 15.9567H802.495C808.552 15.9567 810.833 18.8806 810.481 23.1834C809.9 30.2765 805.403 34.1987 799.437 34.1987H796.425C795.607 34.1987 795.057 34.7141 794.834 36.1148L793.543 44.2462C793.459 44.7744 793.167 45.0845 792.73 45.1223H785.655C784.989 45.1223 784.752 44.6366 784.926 43.5847L789.247 17.4999C789.42 16.4544 790.02 15.9567 791.211 15.9567" fill="#C9D4D8"/>
<path fill-rule="evenodd" clip-rule="evenodd" d="M786.526 29.4036L788.498 17.4997C788.672 16.4544 789.272 15.9568 790.463 15.9568H801.747C803.615 15.9568 805.123 16.2348 806.306 16.7468C805.172 24.066 800.208 28.1326 793.707 28.1326H788.136C787.403 28.1326 786.855 28.4899 786.526 29.4036" fill="#A6AEBE"/>
<path fill-rule="evenodd" clip-rule="evenodd" d="M901.341 41.9373H893.111L898.258 9.66003H906.488L901.341 41.9373Z" fill="#A6AEBE"/>
<path fill-rule="evenodd" clip-rule="evenodd" d="M931.175 10.4492C929.552 9.7961 926.977 9.07501 923.794 9.07501C915.666 9.07501 909.943 13.47 909.908 19.7535C909.841 24.3894 914.006 26.9643 917.121 28.5101C920.305 30.0897 921.387 31.1206 921.387 32.5286C921.355 34.6909 918.814 35.6877 916.445 35.6877C913.159 35.6877 911.399 35.1738 908.723 33.9708L907.639 33.455L906.488 40.7006C908.418 41.5924 911.974 42.3837 915.666 42.4184C924.302 42.4184 929.924 38.0914 929.99 31.3954C930.023 27.721 927.824 24.9056 923.082 22.605C920.204 21.1281 918.441 20.1323 918.441 18.6212C918.475 17.2475 919.932 15.8404 923.181 15.8404C925.857 15.7715 927.823 16.4237 929.312 17.0763L930.056 17.4191L931.175 10.4492V10.4492V10.4492Z" fill="#A6AEBE"/>
<path fill-rule="evenodd" clip-rule="evenodd" d="M945.907 9.66003H952.273L958.912 41.9369H951.292C951.292 41.9369 950.546 38.2283 950.31 37.0951H939.743C939.438 37.9531 938.016 41.9369 938.016 41.9369H929.381L941.605 12.3381C942.452 10.2433 943.944 9.66003 945.907 9.66003ZM945.4 21.4718C945.4 21.4718 942.792 28.6484 942.114 30.5027H948.954C948.616 28.8889 947.057 21.1628 947.057 21.1628L946.482 18.3816C946.24 19.0978 945.89 20.0825 945.654 20.7466C945.493 21.1968 945.386 21.4996 945.4 21.4718Z" fill="#A6AEBE"/>
<path fill-rule="evenodd" clip-rule="evenodd" d="M886.237 9.66003L878.177 31.6701L877.296 27.2062C875.806 22.0554 871.133 16.4592 865.918 13.6767L873.301 41.9031H882.004L894.94 9.66003H886.237V9.66003V9.66003Z" fill="#A6AEBE"/>
<path fill-rule="evenodd" clip-rule="evenodd" d="M870.693 9.66003H857.452L857.316 10.3122C867.645 12.9907 874.486 19.4472 877.296 27.2075L874.418 12.3732C873.944 10.3118 872.488 9.72804 870.693 9.66003V9.66003Z" fill="#A6AEBE"/>
</svg>
